<svg xmlns="http://www.w3.org/2000/svg" viewBox="0 0 221.58 205.88"><defs><style>.cls-1{fill:#0096ff;}.cls-2{fill:#009bff;}.cls-3{fill:none;}</style></defs><g id="Camada_2" data-name="Camada 2"><g id="Camada_1-2" data-name="Camada 1"><path id="Fill_82" data-name="Fill 82" class="cls-1" d="M127.19,150.16a.81.81,0,0,0-.56.19.69.69,0,0,0-.23.54V155a.85.85,0,0,0,.23.63.78.78,0,0,0,.56.21h5.73v18.26a.72.72,0,0,0,.25.56.81.81,0,0,0,.54.23h4.88a.71.71,0,0,0,.57-.25.8.8,0,0,0,.21-.54V155.87h5.76a.71.71,0,0,0,.59-.27.91.91,0,0,0,.21-.57v-4.14a.75.75,0,0,0-.27-.55.83.83,0,0,0-.53-.18Z"/><path id="Fill_83" data-name="Fill 83" class="cls-1" d="M165.29,150.16a.75.75,0,0,0-.56.21.73.73,0,0,0-.21.52V165a5.35,5.35,0,0,1-.33,2,4.17,4.17,0,0,1-.88,1.43,3.85,3.85,0,0,1-1.31.87,4.35,4.35,0,0,1-1.58.29,4.73,4.73,0,0,1-1.54-.25,3.4,3.4,0,0,1-1.3-.79,4,4,0,0,1-.91-1.4,5.92,5.92,0,0,1-.34-2.1V150.89a.65.65,0,0,0-.27-.53,1,1,0,0,0-.53-.2h-5a.6.6,0,0,0-.47.22.75.75,0,0,0-.19.51v14.05a12.24,12.24,0,0,0,.86,4.85,8.52,8.52,0,0,0,2.31,3.2,8.82,8.82,0,0,0,3.36,1.77,14.78,14.78,0,0,0,4,.54,15,15,0,0,0,4-.53A8.67,8.67,0,0,0,167.8,173a8.41,8.41,0,0,0,2.31-3.19,12.44,12.44,0,0,0,.86-4.91V150.89a.7.7,0,0,0-.22-.51.78.78,0,0,0-.6-.22Z"/><path id="Fill_84" data-name="Fill 84" class="cls-1" d="M176.52,150.16a.73.73,0,0,0-.54.2.79.79,0,0,0-.19.56V174.2a.7.7,0,0,0,.2.54.76.76,0,0,0,.53.18h12.06a6.67,6.67,0,0,0,2.79-.61,7.46,7.46,0,0,0,2.32-1.62,7.81,7.81,0,0,0,1.57-2.39,7.16,7.16,0,0,0,.59-2.87,7.68,7.68,0,0,0-.7-3.22,8.28,8.28,0,0,0-1.9-2.62,6.52,6.52,0,0,0,1.11-1.92,6.78,6.78,0,0,0,.39-2.33,7,7,0,0,0-.57-2.81,7.23,7.23,0,0,0-3.82-3.82,7,7,0,0,0-2.76-.55Zm5.72,4.91h3.58a2.61,2.61,0,0,1,1,.2,2.31,2.31,0,0,1,.8.52,2.38,2.38,0,0,1,.52.77,2.56,2.56,0,0,1,0,1.91,2.26,2.26,0,0,1-.53.76,2.09,2.09,0,0,1-.81.5,2.87,2.87,0,0,1-1,.18h-3.53Zm0,9.32h4.42a2.23,2.23,0,0,1,1,.25,2.91,2.91,0,0,1,.82.65,2.87,2.87,0,0,1,.54.89,3,3,0,0,1,.19,1,3,3,0,0,1-.19,1,2.72,2.72,0,0,1-.55.89,2.54,2.54,0,0,1-.82.63,2.17,2.17,0,0,1-1,.23h-4.42Z"/><path id="Fill_85" data-name="Fill 85" class="cls-1" d="M207.3,150.16a1,1,0,0,0-.28.05,1.12,1.12,0,0,0-.28.16,1.21,1.21,0,0,0-.23.22.5.5,0,0,0-.11.22l-9.05,23.44c-.09.22-.07.39.07.5a.84.84,0,0,0,.53.17h4.92a.84.84,0,0,0,.85-.62c.21-.57.42-1.13.64-1.69s.43-1.13.64-1.7h8.86l.63,1.7c.21.56.43,1.12.65,1.69a.89.89,0,0,0,.32.47,1,1,0,0,0,.6.15h4.78a.8.8,0,0,0,.63-.21.49.49,0,0,0,.05-.55l-8.75-22.57-.42-1a1.67,1.67,0,0,0-.3-.31.67.67,0,0,0-.48-.17Zm.21,13.58c.22-.65.43-1.31.64-2s.43-1.33.65-2,.42-1.27.64-1.84l2.55,7.62h-5.12c.21-.56.42-1.17.64-1.82"/><path id="Fill_86" data-name="Fill 86" class="cls-1" d="M9.41,149.59a13.39,13.39,0,0,0-3.06,1.29,13,13,0,0,0-2.6,2,13.7,13.7,0,0,0-2,2.61,13.32,13.32,0,0,0-1.3,3.08,12.72,12.72,0,0,0,1.3,9.89,13.26,13.26,0,0,0,2,2.59,13,13,0,0,0,2.6,2,12.56,12.56,0,0,0,3.06,1.29,12.94,12.94,0,0,0,3.42.46,12.75,12.75,0,0,0,3.84-.58,13.52,13.52,0,0,0,3.4-1.64,1.06,1.06,0,0,0,.42-.42.64.64,0,0,0,0-.62l-2.87-4.14a.66.66,0,0,0-.4-.3.83.83,0,0,0-.51.15,6.29,6.29,0,0,1-1.83,1,6.44,6.44,0,0,1-2.11.34,6.12,6.12,0,0,1-4.54-1.94,6.48,6.48,0,0,1-1.31-2.1,7.32,7.32,0,0,1,0-5.16,6.57,6.57,0,0,1,1.31-2.12,6.25,6.25,0,0,1,2-1.43,6.07,6.07,0,0,1,2.54-.52,6.33,6.33,0,0,1,2.1.34,6.17,6.17,0,0,1,1.81,1,.74.74,0,0,0,.51.14.7.7,0,0,0,.4-.33l2.84-4a.71.71,0,0,0,.05-.64,1,1,0,0,0-.42-.44,13.58,13.58,0,0,0-3.37-1.62,12.76,12.76,0,0,0-3.81-.56,12.54,12.54,0,0,0-3.42.46"/><path id="Fill_87" data-name="Fill 87" class="cls-1" d="M31.43,149.59a13.47,13.47,0,0,0-3.07,1.29,12.74,12.74,0,0,0-4.6,4.62,12.5,12.5,0,0,0-1.3,3.08,13.22,13.22,0,0,0,0,6.84,12,12,0,0,0,1.3,3.05,12.54,12.54,0,0,0,2,2.59,13,13,0,0,0,2.6,2,12.63,12.63,0,0,0,3.07,1.29,12.91,12.91,0,0,0,6.83,0,12.7,12.7,0,0,0,3.08-1.29,13,13,0,0,0,2.6-2,12.25,12.25,0,0,0,2-2.59,12.74,12.74,0,0,0,1.3-3.05,12.94,12.94,0,0,0,0-6.84A13.32,13.32,0,0,0,46,155.5a12.62,12.62,0,0,0-2-2.61,13,13,0,0,0-2.6-2,13.54,13.54,0,0,0-3.08-1.29,12.91,12.91,0,0,0-6.83,0m.87,18.51a6.19,6.19,0,0,1-2-1.41A6.42,6.42,0,0,1,29,164.58a6.94,6.94,0,0,1-.47-2.6,7.06,7.06,0,0,1,.47-2.6,6.57,6.57,0,0,1,1.31-2.12,6.41,6.41,0,0,1,2-1.43,6.09,6.09,0,0,1,2.55-.52,6.17,6.17,0,0,1,2.56.52,6.29,6.29,0,0,1,2,1.43,6.78,6.78,0,0,1,1.32,2.12,7.27,7.27,0,0,1,.47,2.6,7.15,7.15,0,0,1-.47,2.6,6.62,6.62,0,0,1-1.32,2.11,6.09,6.09,0,0,1-2,1.41,6.17,6.17,0,0,1-2.56.52,6.09,6.09,0,0,1-2.55-.52"/><path id="Fill_88" data-name="Fill 88" class="cls-1" d="M52.31,149.48a.75.75,0,0,0-.58.22.84.84,0,0,0-.19.57v23.47a.62.62,0,0,0,.23.57,1.09,1.09,0,0,0,.54.14h8.28A13.73,13.73,0,0,0,64,174a13.12,13.12,0,0,0,3.07-1.22,12.79,12.79,0,0,0,2.59-1.92,12.47,12.47,0,0,0,2-2.51,12.31,12.31,0,0,0,1.3-3,12.48,12.48,0,0,0,.45-3.38,12.15,12.15,0,0,0-.46-3.38,12.63,12.63,0,0,0-1.3-3,11.87,11.87,0,0,0-2-2.52,13.29,13.29,0,0,0-2.6-1.93,13.16,13.16,0,0,0-6.46-1.68Zm5.73,6h2.22a7,7,0,0,1,2.59.48A6.55,6.55,0,0,1,65,157.34a6.31,6.31,0,0,1,1.43,2,6.2,6.2,0,0,1,.53,2.6,6.36,6.36,0,0,1-.46,2.45,5.94,5.94,0,0,1-1.28,2,6.46,6.46,0,0,1-1.9,1.34,6.7,6.7,0,0,1-2.36.62l-.73.06-.76,0H58Z"/><path id="Fill_89" data-name="Fill 89" class="cls-1" d="M78.53,149.5a.7.7,0,0,0-.54.21.8.8,0,0,0-.2.56v23.45a.68.68,0,0,0,.21.55.76.76,0,0,0,.53.18h17c.41,0,.64-.16.69-.47a.46.46,0,0,0,.13-.31v-4.22a.68.68,0,0,0-.76-.77H84.3v-4.3h8.41a.65.65,0,0,0,.54-.22.68.68,0,0,0,.18-.45v-3.63a.58.58,0,0,0-.21-.5.86.86,0,0,0-.52-.15H84.3v-4.17H95.18a.72.72,0,0,0,.59-.26.88.88,0,0,0,.2-.54V150.3a.83.83,0,0,0-.2-.58.74.74,0,0,0-.57-.22Z"/><path id="Fill_90" data-name="Fill 90" class="cls-1" d="M103.06,165.74v3.72h12.08l0,5.22h6.35v-5.22h2.91v-4.22h-2.91v-6H115.9l-.72,6h-5.26l6.86-14.2-5.64-1.79Z"/><path class="cls-2" d="M69.52,205.88c5.72,0,9-3.32,9-7.39,0-4.81-2.89-6.27-8.51-6.89-2.77-.37-3.45-.93-3.45-2.17s.87-1.9,2.58-1.9A2.53,2.53,0,0,1,72,189.92h5.9c-.41-4.69-3.42-6.92-8.76-6.92s-8.6,2.92-8.6,6.92c0,4.47,2.11,6.34,8.38,7.08,2.67.4,3.51.78,3.51,2.14s-1,2.21-2.86,2.21c-2.64,0-3.35-1.31-3.5-2.89H60C60.15,203.27,63.31,205.88,69.52,205.88Z"/><path class="cls-2" d="M81.48,205.51h6.33V198H90.2c5.5,0,8.64-2.52,8.64-7.18v-.12c0-4.72-2.83-7.42-8.92-7.42H81.48Zm6.33-11.83v-5.59h1.87c2,0,3.1.78,3.1,2.67v.12c0,1.83-1.09,2.8-3.14,2.8Z"/><path class="cls-2" d="M98.43,205.51h5.93l1.18-4.13h7.36l1.18,4.13h6.74l-7-22.2h-8.23Zm10.81-17,2.42,8.54h-4.88Z"/><path class="cls-2" d="M132.65,205.88c5.74,0,9.91-3,10.34-8.72h-6.33a3.83,3.83,0,0,1-4.13,3.63c-3.05,0-4.76-2.27-4.76-6.27v-.25c0-4,1.81-6.27,4.66-6.27,2.24,0,3.48,1.24,3.73,3.51h6.55c-.53-5.87-4.53-8.54-10.31-8.54-6.49,0-11.33,4.5-11.33,11.33v.25C121.07,201.35,124.89,205.88,132.65,205.88Z"/><path class="cls-2" d="M145.78,205.51h15.84V200.6h-9.5v-4h7.17V192h-7.17v-3.82h9v-4.9H145.78Z"/><path class="cls-3" d="M21.41,116.88c5,2.05,16.64,1.47,31-1"/><path class="cls-1" d="M194.1,42.79c-.52-.17-.06-.29-.64-.29H153.37a5.16,5.16,0,0,0-4.45,2.55L127.25,82.16a5.11,5.11,0,0,0-.7,2.59V96.11l.84-.36C160.55,81.28,190.75,51.67,194.1,42.79Z"/><path class="cls-1" d="M185.38,80.33C167.82,95,144.24,106.12,130.55,112v13.46a5.15,5.15,0,0,0,5.14,5.15h38a5.15,5.15,0,0,0,5.14-5.15V95.66A5.16,5.16,0,0,1,184,90.51h13.44a5.14,5.14,0,0,0,5.14-5.15V63.17A136.86,136.86,0,0,1,185.38,80.33Z"/><path class="cls-1" d="M160.09,25.93,170.72,7.74A5.15,5.15,0,0,0,166.27,0H128.14a5.13,5.13,0,0,0-4.44,2.55L88.33,63.1h.2L98.88,80.81a5.16,5.16,0,0,0,4.45,2.55h23.22V47.65a5.14,5.14,0,0,1,5.14-5.15h15.77A5.13,5.13,0,0,0,151.9,40l7.7-13.18,0,0Z"/><path class="cls-1" d="M41.17,78.07l21.26,36.82a308.68,308.68,0,0,0,43.66-11.06l-9.81-17h0l-1-1.83L85.43,68.06l-2.86-5h0l-.16-.26L114.24,7.72A5.14,5.14,0,0,0,109.79,0H71.62a5.12,5.12,0,0,0-4.45,2.57L33.86,60.26a5.15,5.15,0,0,0,0,5.15L38,72.59"/><path class="cls-1" d="M113.79,129.67a5.14,5.14,0,0,0,4.45-7.72l-2.33-4A300.68,300.68,0,0,1,77.1,129.67Z"/><path class="cls-1" d="M211.49,33.3c-7.39-14.07-45.91-13.51-45.91-13.51l-5.49,9.14-.49.84.06,0s41.86-1.88,35.49,15.94c0,0,0,.08-.05.12-3.35,8.88-34.55,38.49-67.71,53l-.84.36c-6.44,2.77-13.36,5.37-20.46,7.72a308.68,308.68,0,0,1-43.66,11.06c-14.38,2.46-26,3-31,1-16.18-6.62,2.16-29.22,9.76-37.81L38,75.59c-11.91,9.92-31.1,28.6-28.33,41.73A18.52,18.52,0,0,0,20,128.67c8.29,3.7,22.06,4.12,31,3.46a156.55,156.55,0,0,0,22.11-3.46,300.68,300.68,0,0,0,38.81-11.77c5.14-1.92,9.8-3.8,13.73-5.48l.91-.39c13.69-5.91,37.27-17,54.83-31.7A136.86,136.86,0,0,0,198.6,62.17C208.83,49.91,214.18,38.43,211.49,33.3Z"/></g></g></svg>