<svg width="258" height="118" viewBox="0 0 258 118" fill="none" xmlns="http://www.w3.org/2000/svg">
<g clip-path="url(#clip0_1278_761)">
<path d="M95.127 86.2323L98.0644 85.7282V65.076L95.127 64.5719V62.2852H115.4V68.5871H112.373L112.084 65.076H101.614V74.1147H111.76V76.9055H101.614V85.7282L104.552 86.2323V88.501H95.127V86.2323Z" fill="black"/>
<path d="M129.602 62.3008C132.461 62.3008 134.653 62.937 136.179 64.2094C137.705 65.4697 138.468 67.2643 138.468 69.593C138.468 70.8653 138.113 71.9937 137.405 72.978C136.696 73.9623 135.681 74.7365 134.359 75.3007C135.789 75.7688 136.816 76.531 137.441 77.5873C138.077 78.6437 138.396 79.946 138.396 81.4945V83.6011C138.396 84.4054 138.498 84.9996 138.702 85.3837C138.906 85.7678 139.243 85.9959 139.711 86.0679L140.576 86.1759V88.4986H138.666C137.285 88.4986 136.299 88.0185 135.711 87.0582C135.134 86.0979 134.846 84.9335 134.846 83.5651V81.5305C134.846 80.1021 134.431 78.9558 133.602 78.0915C132.773 77.2272 131.662 76.7951 130.268 76.7951H124.574V85.7258L127.511 86.2299V88.4986H118.086V86.2299L121.024 85.7258V65.0736L118.086 64.5695V62.3008H121.024H129.602ZM124.574 74.0043H129.241C131.224 74.0043 132.665 73.6262 133.566 72.8699C134.467 72.1137 134.918 71.0094 134.918 69.557C134.918 68.1765 134.485 67.0842 133.62 66.28C132.755 65.4757 131.416 65.0736 129.602 65.0736H124.574V74.0043Z" fill="black"/>
<path d="M166.436 75.5903C166.436 79.4075 165.337 82.5763 163.138 85.0971C160.952 87.6178 158.117 88.8782 154.633 88.8782C151.245 88.8782 148.493 87.6178 146.379 85.0971C144.265 82.5763 143.207 79.4075 143.207 75.5903V75.2121C143.207 71.407 144.265 68.2381 146.379 65.7053C148.493 63.1725 151.245 61.9062 154.633 61.9062C158.117 61.9062 160.952 63.1725 163.138 65.7053C165.337 68.2381 166.436 71.407 166.436 75.2121V75.5903ZM162.886 75.1762C162.886 72.1273 162.153 69.6426 160.688 67.722C159.234 65.7894 157.216 64.823 154.633 64.823C152.158 64.823 150.223 65.7894 148.83 67.722C147.448 69.6546 146.757 72.1393 146.757 75.1762V75.5903C146.757 78.6633 147.448 81.1659 148.83 83.0985C150.223 85.0191 152.158 85.9794 154.633 85.9794C157.252 85.9794 159.282 85.0191 160.724 83.0985C162.165 81.1779 162.886 78.6753 162.886 75.5903V75.1762Z" fill="black"/>
<path d="M194.819 62.2852V64.5719L191.882 65.076V88.501H188.331L175.717 68.263L175.609 68.299V85.7282L178.546 86.2323V88.501H169.121V86.2323L172.059 85.7282V65.076L169.121 64.5719V62.2852H172.059H175.609L188.223 82.5052L188.331 82.4692V65.076L185.394 64.5719V62.2852H191.882H194.819Z" fill="black"/>
<path d="M218.426 62.2852V68.0829H215.399L215.128 65.076H209.308V85.7282L212.245 86.2323V88.501H202.82V86.2323L205.758 85.7282V65.076H199.919L199.667 68.0829H196.621V62.2852H218.426Z" fill="black"/>
<path d="M220.354 64.5719V62.2852H229.779V64.5719L226.842 65.076V85.7282L229.779 86.2323V88.501H220.354V86.2323L223.292 85.7282V65.076L220.354 64.5719Z" fill="black"/>
<path d="M258.001 62.2852V64.5719L255.064 65.076V88.501H251.513L238.899 68.263L238.791 68.299V85.7282L241.728 86.2323V88.501H232.303V86.2323L235.241 85.7282V65.076L232.303 64.5719V62.2852H235.241H238.791L251.405 82.5052L251.513 82.4692V65.076L248.576 64.5719V62.2852H255.064H258.001Z" fill="black"/>
<mask id="mask0_1278_761" style="mask-type:luminance" maskUnits="userSpaceOnUse" x="0" y="0" width="103" height="118">
<path d="M102.284 0H0V118H102.284V0Z" fill="white"/>
</mask>
<g mask="url(#mask0_1278_761)">
<path d="M102.285 48.7569H94.3229V8.16903H51.0957V0H102.285V48.7569Z" fill="black"/>
<path d="M43.0204 118V88.9502H0V40.5781H8.14548V80.7816H51.1655V99.6205L70.1118 80.882L80.3225 80.9865L43.0204 118Z" fill="black"/>
<path d="M16.6289 70.191L23.2352 73.7274L51.0483 21.47L44.442 17.9336L16.6289 70.191Z" fill="black"/>
<path d="M76.4325 13.4102H68.8398V40.1362H76.4325V13.4102Z" fill="black"/>
<path d="M62.1651 17.6797L58.9551 24.5748L83.0991 35.8799L86.309 28.9848L62.1651 17.6797Z" fill="black"/>
<path d="M83.0736 17.6094L58.9297 28.9145L62.1905 35.9189L86.3345 24.6138L83.0736 17.6094Z" fill="black"/>
<path d="M69.2129 36.8787L76.8056 33.3278V33.1739L76.9697 33.2508L85.9492 29.0525L81.7592 27.0938L69.2129 32.9591V36.8787Z" fill="black"/>
</g>
<path d="M134.43 100H141.001V106.571H134.43V100Z" fill="#58A9F3"/>
<path d="M95 100H127.857V106.571H95V100Z" fill="#FF685C"/>
</g>
<defs>
<clipPath id="clip0_1278_761">
<rect width="258" height="118" fill="white"/>
</clipPath>
</defs>
</svg>
